<?xml version="1.0" encoding="utf-8"?>
<!-- Generator: Adobe Illustrator 14.0.0, SVG Export Plug-In  -->
<!DOCTYPE svg PUBLIC "-//W3C//DTD SVG 1.1//EN" "http://www.w3.org/Graphics/SVG/1.1/DTD/svg11.dtd" [
	<!ENTITY ns_flows "http://ns.adobe.com/Flows/1.0/">
]>
<svg version="1.1"
	 xmlns="http://www.w3.org/2000/svg" xmlns:xlink="http://www.w3.org/1999/xlink" xmlns:a="http://ns.adobe.com/AdobeSVGViewerExtensions/3.0/"
	 x="0px" y="0px" width="349px" height="121px" viewBox="-6.46 -4.75 349 121" enable-background="new -6.46 -4.75 349 121"
	 xml:space="preserve">
<defs>
</defs>
<path fill-rule="evenodd" clip-rule="evenodd" fill="#F17516" d="M299.878,27.127c-3.143-5.362-20.943-5.574-71.781,8.784
	c0,0,51.76-11.74,58.549-0.166c2.098,3.582-0.105,9.4-9.494,18.486c0,0,27.373-19.179,22.725-27.106L299.878,27.127z M335.077,6.843
	c-2.371-4.04-8.836-6.646-21.305-6.832c-6.203-0.094-13.9,0.408-23.318,1.635c-22.701,2.947-55.41,10.077-101.42,23.073
	c0,0,105.309-23.89,119.119-0.34c4.271,7.286-0.217,19.118-19.313,37.611c0,0,55.695-39.025,46.236-55.149"/>
<path fill="#7F6B8F" d="M28.015,68.028l-0.28,1.32c-1.122,5.279-3.578,5.641-8.512,5.641c-7.133,0-6.88-2.576-5.454-9.287
	l1.489-7.01c1.364-6.411,2.469-8.511,9.282-8.511c4.066,0,6.813,0.3,6.38,4.296l-0.367,1.729h12.321l0.37-1.739
	c2.626-13.5-2.862-14.761-15.21-14.761c-13.188,0-21.622,2.172-24.786,17.061L0.773,68.415c-3.496,16.447,5.31,17.047,17.544,17.047
	c5.218,0,10.189,0.029,14.981-3.332c4.805-3.42,5.811-7.859,6.856-12.779l0.28-1.32L28.015,68.028z M70.361,77.366l0.702,7.703
	h12.235l-4.107-45.002H60.96l-23.06,45.002h12.474l3.856-7.703H70.361z M69.924,68.569H58.765l9.605-19.502h0.12L69.924,68.569z
	 M107.777,57.354c-3.122-0.24-4.832-0.361-4.066-3.959c0.536-2.521,1.356-3.842,7.83-3.842c4.796,0,6.716,0,5.734,4.613h11.563
	l0.396-1.859c2.64-12.42-5.732-12.601-15.578-12.601c-11.766,0-19.208,0.847-21.96,13.786c-2.75,12.943,3.726,12.883,14.632,13.666
	l2.597,0.178c5.55,0.355,6.226,0.295,5.405,4.154c-0.794,3.736-2.729,4.092-8.366,4.092c-5.878,0-7.453-0.48-6.46-5.154H87.941
	c-3.139,14.76,4.448,15,15.932,15c19.849,0,21.044-7.318,22.626-14.756c2.194-10.318-0.746-11.998-13.83-12.959L107.777,57.354z
	 M157.361,77.366l0.702,7.703h12.235l-4.107-45.002h-18.23l-23.06,45.002h12.474l3.856-7.703H157.361z M156.925,68.569h-11.16
	l9.605-19.502h0.12L156.925,68.569z M189.897,62.688l2.582-12.147h9.316c3.969,0,4.748,1.141,3.896,5.146
	c-1.08,5.087-1.355,7.001-6.51,7.001H189.897z M173.147,85.069h11.992l2.533-11.908h9.283c3.594,0,4.551,2.273,3.707,5.625
	l-1.336,6.283h11.99l1.928-9.061c1.084-5.1-1.518-7.801-6.387-7.98l0.102-0.48c9.051-1.979,9.982-6.359,11.576-13.86
	c2.387-11.22-2.256-13.44-12.617-13.62h-23.207L173.147,85.069z M239.651,40.067h-11.99l-9.566,45.002h11.992L239.651,40.067z
	 M265.362,77.366l0.701,7.703H278.3l-4.107-45.002h-18.23l-23.061,45.002h12.475l3.855-7.703H265.362z M264.927,68.569h-11.16
	l9.605-19.502h0.121"/>
<path fill="#F17516" d="M27.639,95.739h4.354l0.802-3.771H19.727l-0.803,3.771h4.219l-2.706,12.729h4.496L27.639,95.739z
	 M35.225,101.252c0.363-1.514,0.84-1.82,2.153-1.82c1.25,0,1.853,0.109,1.488,1.82H35.225z M38.291,104.618
	c-0.256,1.205-1.031,1.336-2.195,1.336c-1.561,0-1.742-0.592-1.314-2.607h7.498l0.138-0.646c1.015-4.766-0.032-5.992-4.392-5.992
	c-4.67,0-6.004,1.496-6.962,5.996c-0.929,4.369-0.164,5.973,4.418,5.973c1.682,0,3.126-0.135,4.242-0.697
	c1.12-0.582,1.909-1.592,2.286-3.363L38.291,104.618z M50.747,103.848c-0.346,1.629-0.532,2.105-2.151,2.105
	c-1.351,0-1.578-0.297-0.979-3.119c0.586-2.754,1.046-3.145,2.33-3.145c0.758,0,1.16,0.08,1.366,0.301
	c0.206,0.219,0.195,0.557,0.016,1.117h3.854c0.861-4.053-1.322-4.4-4.626-4.4c-4.706,0-5.925,2.031-6.769,5.996
	c-0.979,4.611-0.218,5.973,4.225,5.973c2.035,0,3.438-0.113,4.455-0.783c1.036-0.646,1.666-1.855,2.133-4.047L50.747,103.848z
	 M62.617,91.967h-3.854l-3.509,16.5h3.854l1.392-6.543c0.309-1.451,0.803-2.492,2.422-2.492c1.177,0,1.351,0.568,1.126,1.723
	l-1.556,7.313h3.854l1.71-8.037c0.531-2.502-0.362-3.723-2.882-3.723c-1.761,0-2.973,0.479-3.916,2.367h-0.152L62.617,91.967z
	 M71.533,96.842l-2.472,11.625h3.854l1.393-6.543c0.308-1.451,0.802-2.492,2.418-2.492c1.174,0,1.348,0.568,1.124,1.723
	l-1.557,7.313h3.854l1.71-8.037c0.532-2.502-0.362-3.723-2.88-3.723c-1.758,0-2.964,0.467-3.898,2.305h-0.151l0.46-2.17H71.533z
	 M90.479,96.708c-4.86,0-6.072,1.207-7.09,5.996c-0.994,4.68-0.227,5.973,4.546,5.973c4.838,0,6.086-1.158,7.107-5.973
	C96.095,97.756,95.361,96.708,90.479,96.708L90.479,96.708z M89.966,99.432c1.742,0,1.801,0.551,1.223,3.273
	c-0.578,2.725-0.866,3.248-2.608,3.248c-1.808,0-1.914-0.525-1.336-3.248C87.825,99.981,88.159,99.432,89.966,99.432L89.966,99.432z
	 M103.019,91.967h-3.854l-3.508,16.5h3.854L103.019,91.967z M109.878,96.708c-4.859,0-6.071,1.207-7.09,5.996
	c-0.994,4.68-0.226,5.973,4.546,5.973c4.838,0,6.086-1.158,7.108-5.973C115.495,97.756,114.761,96.708,109.878,96.708
	L109.878,96.708z M109.367,99.432c1.742,0,1.8,0.551,1.222,3.273c-0.577,2.725-0.865,3.248-2.607,3.248
	c-1.809,0-1.914-0.525-1.336-3.248C107.225,99.981,107.559,99.432,109.367,99.432L109.367,99.432z M120.891,105.745
	c-1.593,0-1.782-0.521-1.24-3.074c0.608-2.861,0.86-3.24,2.582-3.24c1.55,0,1.868,0.426,1.27,3.24
	C123.05,104.797,122.699,105.745,120.891,105.745L120.891,105.745z M114.813,109.483c-0.662,3.738,0.436,4.189,4.546,4.189
	c4.464,0,5.941-1.332,6.868-5.682l2.368-11.145h-3.854l-0.288,2.064H124.3c-0.077-1.799-1.178-2.201-2.804-2.201
	c-3.974,0-4.899,2.191-5.7,5.959c-0.701,3.299-0.882,5.801,3.2,5.801c1.448,0,2.754-0.461,3.542-1.891h0.132l-0.51,2.396
	c-0.342,1.607-0.748,1.871-2.372,1.871c-0.439,0-0.852-0.021-1.124-0.178c-0.292-0.178-0.414-0.537-0.273-1.186H114.813z
	 M141.787,96.918h-3.859l-3.86,9.393h-0.044l-0.282-9.393h-3.946l0.965,11.549h2.06c-0.346,1.318-0.922,2.48-2.5,2.48
	c-0.22,0-0.435-0.02-0.65-0.037l-0.571,2.691c0.434,0.021,0.84,0.068,1.277,0.068c3.2,0,4.548-1.082,5.832-4.133L141.787,96.918z
	 M158.411,104.764c-0.828,0.354-1.689,0.354-2.352,0.354c-2.013,0-3.145,0.029-2.672-2.191c0.174-0.814,0.376-1.848,1.454-1.959
	L158.411,104.764z M161.735,108.543l2.468-2.367l-1.474-1.66c0.334-0.51,0.605-1.084,0.72-1.617l0.692-3.254h-3.427l-0.466,2.193
	l-3.31-3.631c-0.446-0.508-0.698-0.885-0.54-1.639c0.254-1.193,0.644-1.461,1.778-1.461c0.909,0,1.384,0.066,1.59,0.354
	s0.142,0.793-0.223,1.719h3.854l0.18-0.848c0.979-4.041-0.944-4.576-4.7-4.576c-3.668,0-5.664,0.645-6.474,4.465
	c-0.292,1.377-0.176,1.908,0.708,2.818c-2.558,0.045-3.45,2.242-3.898,4.35c-1.027,4.84,1.834,5.285,6.07,5.285
	c1.811,0,3.796,0,5.218-1.504L161.735,108.543z M181.108,98.225c-1.145-0.09-1.77-0.133-1.486-1.473
	c0.199-0.939,0.498-1.432,2.816-1.432c1.719,0,2.406,0,2.018,1.816h4.281l0.148-0.691c0.982-4.619-2.092-4.688-5.709-4.688
	c-4.322,0-7.059,0.313-8.074,5.094c-1.018,4.781,1.357,4.76,5.354,5.049l0.953,0.066c2.031,0.137,2.281,0.115,1.967,1.584
	c-0.305,1.426-1.01,1.563-3.064,1.563c-2.141,0-2.713-0.188-2.322-2.016h-4.283c-1.168,5.488,1.615,5.578,5.83,5.578
	c7.285,0,7.828-2.725,8.416-5.494c0.818-3.842-0.26-4.467-5.055-4.824L181.108,98.225z M193.626,101.252
	c0.363-1.514,0.84-1.82,2.154-1.82c1.25,0,1.852,0.109,1.488,1.82H193.626z M196.692,104.618c-0.256,1.205-1.031,1.336-2.195,1.336
	c-1.561,0-1.742-0.592-1.314-2.607h7.498l0.137-0.646c1.016-4.766-0.031-5.992-4.391-5.992c-4.67,0-6.004,1.496-6.963,5.996
	c-0.928,4.369-0.164,5.973,4.418,5.973c1.682,0,3.127-0.135,4.242-0.697c1.121-0.582,1.91-1.592,2.287-3.363L196.692,104.618z
	 M208.94,101.946h3.426l0.193-0.914c0.455-2.141,0.699-4.324-1.947-4.324c-1.41,0-2.516,0.529-3.314,1.904h-0.154l0.361-1.693
	h-3.684l-2.455,11.549h3.854l1.482-6.967c0.201-0.951,0.654-1.861,1.773-1.861c1.014,0,0.76,0.918,0.582,1.744L208.94,101.946z
	 M225.388,96.918h-3.924l-3.816,9.035h-0.109l-0.174-9.035h-3.969l0.74,11.549h5.953L225.388,96.918z M230.167,96.918h-3.855
	l-2.455,11.549h3.854L230.167,96.918z M231.22,91.967h-3.854l-0.578,2.725h3.854L231.22,91.967z M237.548,103.848
	c-0.346,1.629-0.531,2.105-2.152,2.105c-1.35,0-1.578-0.297-0.977-3.119c0.586-2.754,1.045-3.145,2.33-3.145
	c0.758,0,1.16,0.08,1.365,0.301c0.205,0.219,0.195,0.557,0.016,1.117h3.854c0.863-4.053-1.32-4.4-4.625-4.4
	c-4.707,0-5.924,2.031-6.768,5.996c-0.98,4.611-0.219,5.973,4.223,5.973c2.037,0,3.439-0.113,4.457-0.783
	c1.035-0.646,1.666-1.855,2.131-4.047L237.548,103.848z M246.827,101.252c0.363-1.514,0.84-1.82,2.152-1.82
	c1.25,0,1.854,0.109,1.488,1.82H246.827z M249.892,104.618c-0.256,1.205-1.031,1.336-2.195,1.336c-1.561,0-1.742-0.592-1.314-2.607
	h7.498l0.139-0.646c1.014-4.766-0.033-5.992-4.393-5.992c-4.67,0-6.004,1.496-6.961,5.996c-0.93,4.369-0.164,5.973,4.418,5.973
	c1.682,0,3.125-0.135,4.242-0.697c1.119-0.582,1.908-1.592,2.285-3.363"/>
</svg>
