<?xml version="1.0" standalone="no"?>
<!DOCTYPE svg PUBLIC "-//W3C//DTD SVG 20010904//EN"
 "http://www.w3.org/TR/2001/REC-SVG-20010904/DTD/svg10.dtd">
<svg version="1.0" xmlns="http://www.w3.org/2000/svg"
 width="189.000000pt" height="189.000000pt" viewBox="0 0 189.000000 189.000000"
 preserveAspectRatio="xMidYMid meet">
<metadata>
Created by potrace 1.11, written by Peter Selinger 2001-2013
</metadata>
<g transform="translate(0.000000,189.000000) scale(0.100000,-0.100000)"
fill="#000000" stroke="none">
<path d="M488 1785 c-2 -1 -33 -5 -69 -9 -91 -8 -187 -39 -240 -78 -50 -35
-58 -45 -100 -108 -131 -197 -5 -528 299 -783 21 -18 32 -37 33 -55 5 -164
132 -422 269 -546 119 -108 307 -125 439 -42 136 87 283 335 315 531 3 17 8
45 11 64 3 20 16 41 28 50 43 29 150 137 195 196 55 73 119 206 142 295 35
138 2 267 -91 360 -71 70 -145 99 -299 119 -127 16 -305 -7 -426 -56 l-64 -25
-72 26 c-97 34 -197 55 -290 60 -42 2 -78 2 -80 1z m162 -270 c7 -4 -4 -24
-28 -53 -81 -99 -129 -182 -167 -291 l-22 -63 -46 63 c-48 69 -70 113 -96 199
-27 88 -24 101 31 122 26 9 69 20 95 24 26 3 49 7 51 9 6 5 172 -4 182 -10z
m857 -16 c63 -19 73 -25 73 -44 0 -32 -38 -152 -65 -205 -28 -55 -82 -130 -93
-130 -5 0 -14 19 -21 43 -22 72 -99 210 -156 280 -60 72 -61 67 10 80 49 8
185 -4 252 -24z m-519 -159 c28 -28 66 -71 83 -96 41 -60 95 -179 103 -229 4
-22 9 -48 12 -57 4 -14 -9 -22 -68 -40 -134 -42 -389 -26 -442 28 -9 9 -14 20
-10 25 3 5 7 21 10 35 9 49 36 120 71 182 36 65 156 202 177 202 6 0 35 -23
64 -50z m-62 -707 c55 0 129 5 166 11 l66 12 -14 -36 c-34 -81 -88 -162 -145
-219 -33 -34 -66 -61 -72 -61 -47 1 -227 244 -227 306 0 8 18 7 64 -1 35 -7
108 -12 162 -12z"/>
</g>
</svg>
